<svg xmlns="http://www.w3.org/2000/svg" xmlns:xlink="http://www.w3.org/1999/xlink" width="75.204" height="69.146" viewBox="0 0 75.204 69.146"><defs><clipPath id="a"><path d="M0-306.552H75.2V-375.7H0Z" transform="translate(0 375.698)" fill="#4b59b5"/></clipPath></defs><g transform="translate(0 375.698)"><g transform="translate(0 -375.698)" clip-path="url(#a)"><g transform="translate(0 0)"><path d="M-235.38-16.26c-.351.345-.7.687-1.051,1.037A83.91,83.91,0,0,1-252.78-2.177,19.782,19.782,0,0,1-259.214.445a3.76,3.76,0,0,1-4.622-4.512c.122-.734.375-1.446.6-2.285-.47.209-.852.366-1.221.546a22.846,22.846,0,0,1-7.557,2.055,5.3,5.3,0,0,1-3.515-.849q-1.223-.8-2.419-1.637a2.784,2.784,0,0,0-3.429-.051c-1.179.819-2.29,1.738-3.41,2.638-.56.45-1.039,1.009-1.621,1.425-.861.617-1.572.359-1.834-.636a8.678,8.678,0,0,1,.5-5.353c.091-.241.478-.371.728-.552.167.27.464.536.473.811.022.629-.116,1.262-.154,1.9-.029.5-.006,1-.006,1.826a14.035,14.035,0,0,0,1.222-1.235,13.864,13.864,0,0,1,4.1-3.367,3.759,3.759,0,0,1,4.509.209,12.587,12.587,0,0,1,2.056,1.692,3.635,3.635,0,0,0,3.59,1.067,31.7,31.7,0,0,0,9.271-2.965,4.245,4.245,0,0,0,1.215-1.081,17.605,17.605,0,0,1,13.326-6.356c.845-.019,1.695,0,2.538.063a6.629,6.629,0,0,1,4.189,1.9c.841.8.93.793,1.755-.024,1.5-1.49,2.978-3.009,4.463-4.517a3.917,3.917,0,0,1,.619-.635c.329-.2.778-.522,1.059-.43.578.187.356.755.257,1.208-.918,4.182-1.909,8.349-2.736,12.548-.95,4.822-1.751,9.674-2.625,14.511-.279,1.543-.589,3.081-.871,4.623a8.771,8.771,0,0,0-.073.93l.255.13,2.644-2.992c2.16-2.443,4.145-5.075,6.523-7.282,3.035-2.817,6.381-5.3,9.6-7.91,1.513-1.227,3.044-2.433,4.576-3.635a3.621,3.621,0,0,1,1.066-.67,1.126,1.126,0,0,1,.865.227c.085.063-.018.592-.185.748q-1.252,1.17-2.589,2.248c-2.773,2.229-5.585,4.409-8.339,6.661a69.458,69.458,0,0,0-8.214,8.126c-2.092,2.391-4.09,4.863-6.13,7.3a5.723,5.723,0,0,0-1.213,2.614c-.959,4.693-1.833,9.41-3.017,14.047a38.411,38.411,0,0,1-6.039,13.645,4.907,4.907,0,0,1-2.6,1.929,2.357,2.357,0,0,1-2.847-1.065,4.6,4.6,0,0,1-.721-3.288,23.588,23.588,0,0,1,.982-3.674c2.647-7.173,6.557-13.679,10.748-20.013a19.231,19.231,0,0,0,2.923-7.493c1.412-8.056,2.969-16.085,4.476-24.124.25-1.333.557-2.656.8-3.99a14.419,14.419,0,0,0,.117-1.595l-.231-.114m-11.74,2.61c-.959.129-2.054.228-3.13.43a15.008,15.008,0,0,0-9.188,5.908,14.923,14.923,0,0,0-2.085,3.6c-.691,1.733.409,2.971,2.252,2.676a10.2,10.2,0,0,0,2.435-.668c1.354-.588,2.683-1.249,3.974-1.967a61.781,61.781,0,0,0,10.529-7.5c.993-.864.9-1.27-.277-1.792a4.008,4.008,0,0,0-1.093-.318c-1.088-.14-2.182-.237-3.416-.365m4.762,36.232-.35-.142c-.67,1.064-1.361,2.115-2.007,3.194a92.277,92.277,0,0,0-7.7,14.862,31.359,31.359,0,0,0-1.246,4.9,1.691,1.691,0,0,0,.883,1.947c.739.354,1.3-.16,1.8-.617a5.88,5.88,0,0,0,.975-1.153,25.382,25.382,0,0,0,1.254-2.207c3.312-6.567,4.765-13.7,6.392-20.784" transform="translate(288.473 19.928)" fill="#4b59b5"/></g></g></g></svg>